HIERARCHY
ROOT Hips
{
  OFFSET 0.000000 0.000000 0.000000
  CHANNELS 6 Xposition Yposition Zposition Zrotation Xrotation Yrotation
  JOINT RightUpLeg
  {
    OFFSET -5.909942 -9.076447 1.433727
    CHANNELS 3 Zrotation Xrotation Yrotation
    JOINT RightLeg
    {
      OFFSET -8.568864 -21.142736 32.600246
      CHANNELS 3 Zrotation Xrotation Yrotation
      JOINT RightFoot
      {
        OFFSET 1.226634 -38.546829 -19.022003
        CHANNELS 3 Zrotation Xrotation Yrotation
        JOINT RightToeBase
        {
          OFFSET -6.848311 -7.431079 11.134232
          CHANNELS 3 Zrotation Xrotation Yrotation
          End Site
          {
            OFFSET 0.000000 4.000000 0.000000
          }
        }
      }
    }
  }
  JOINT LeftUpLeg
  {
    OFFSET 5.767147 -8.255487 -1.003340
    CHANNELS 3 Zrotation Xrotation Yrotation
    JOINT LeftLeg
    {
      OFFSET 18.799402 -23.832699 27.982040
      CHANNELS 3 Zrotation Xrotation Yrotation
      JOINT LeftFoot
      {
        OFFSET -4.286745 -32.807285 -26.066048
        CHANNELS 3 Zrotation Xrotation Yrotation
        JOINT LeftToeBase
        {
          OFFSET 8.084914 -8.068116 7.432722
          CHANNELS 3 Zrotation Xrotation Yrotation
          End Site
          {
            OFFSET 0.000000 4.000000 0.000000
          }
        }
      }
    }
  }
  JOINT Spine
  {
    OFFSET -1.416535 11.791885 -5.029039
    CHANNELS 3 Zrotation Xrotation Yrotation
    JOINT Spine1
    {
      OFFSET 1.151610 8.293086 10.120005
      CHANNELS 3 Zrotation Xrotation Yrotation
      JOINT Spine2
      {
        OFFSET 0.689094 3.291970 4.262249
        CHANNELS 3 Zrotation Xrotation Yrotation
        JOINT Neck
        {
          OFFSET 1.177938 18.414043 10.966823
          CHANNELS 3 Zrotation Xrotation Yrotation
          JOINT Head
          {
            OFFSET 0.720636 4.072571 8.673581
            CHANNELS 3 Zrotation Xrotation Yrotation
            End Site
            {
              OFFSET 0.000000 4.000000 0.000000
            }
          }
        }
        JOINT RightShoulder
        {
          OFFSET -6.478049 9.945226 7.012753
          CHANNELS 3 Zrotation Xrotation Yrotation
          JOINT RightArm
          {
            OFFSET -9.178507 -1.750588 6.899093
            CHANNELS 3 Zrotation Xrotation Yrotation
            JOINT RightForeArm
            {
              OFFSET -7.204366 -25.377773 0.951800
              CHANNELS 3 Zrotation Xrotation Yrotation
              JOINT RightHand
              {
                OFFSET 20.428905 -3.788328 15.003475
                CHANNELS 3 Zrotation Xrotation Yrotation
                End Site
                {
                  OFFSET 0.000000 4.000000 0.000000
                }
              }
            }
          }
        }
        JOINT LeftShoulder
        {
          OFFSET 7.084739 10.494864 3.348273
          CHANNELS 3 Zrotation Xrotation Yrotation
          JOINT LeftArm
          {
            OFFSET 12.883471 0.241089 0.315504
            CHANNELS 3 Zrotation Xrotation Yrotation
            JOINT LeftForeArm
            {
              OFFSET 8.271703 -21.203386 -11.383984
              CHANNELS 3 Zrotation Xrotation Yrotation
              JOINT LeftHand
              {
                OFFSET -1.295251 -3.158051 20.572857
                CHANNELS 3 Zrotation Xrotation Yrotation
                End Site
                {
                  OFFSET 0.000000 4.000000 0.000000
                }
              }
            }
          }
        }
      }
    }
  }
}
MOTION
Frames: 14
Frame Time: 0.050000
196.084106 15.397013 -7.691748 -15.615934 18.679863 -2.028511 26.662960 45.973930 -24.959352 55.383495 -70.871426 72.106351 -18.135469 30.973769 -37.834643 25.047683 1.383316 44.633593 -2.720826 11.298777 14.770861 70.386022 -47.866553 -1.375893 -95.576457 -2.332881 1.946420 50.307500 -2.139578 31.718377 39.341888 -58.637881 16.681325 4.148227 -1.737560 -8.969647 -15.925359 10.193523 22.214875 9.011928 -2.805828 -37.457871 -25.608100 24.233745 36.572101 -33.712406 46.172353 -74.132388 -9.633089 8.039788 89.793621 32.019781 -65.775671 -71.907106 -42.788243 4.318706 93.155166 17.454479 23.898628 -69.415704 68.316176 -66.585179 112.409407 -8.159352 19.364040 -59.876514 -46.977014 54.770392 104.140197
205.744217 13.819313 -4.696317 -16.127628 19.698012 -1.887197 27.363665 46.091307 -25.915833 56.989872 -75.356936 77.385314 -16.323539 30.870456 -42.849405 27.284848 6.533637 46.557639 -3.788101 12.224265 15.710776 74.906795 -51.861250 4.464438 -96.550368 -2.548921 -3.735687 50.563658 5.615432 35.787477 40.668808 -58.141009 16.325630 4.127024 -3.284575 -7.765943 -15.332284 11.201882 21.326636 7.849628 -4.701373 -38.448291 -27.676465 24.595449 39.390421 -35.470207 45.860386 -74.648257 -12.056972 7.943740 91.513984 31.240768 -68.654683 -75.054044 -43.157462 3.240916 96.822383 16.457741 22.908707 -72.005386 73.059811 -64.634734 122.722439 -5.350325 21.851611 -65.727786 -46.458661 53.614218 105.582880
215.127350 12.331402 -1.061386 -16.646221 21.678240 -1.447783 26.433637 42.950636 -25.280223 37.909027 -72.631031 60.040171 -16.364393 27.289475 -47.714642 28.826464 8.662713 48.961775 -6.603030 13.595339 15.582317 79.395651 -52.740519 10.930046 -93.523379 -5.719728 -22.089220 46.076458 23.043819 44.716515 44.376007 -58.844062 16.387455 3.744017 -3.892384 -5.678181 -14.128827 11.492116 20.291780 6.145658 -4.679461 -36.974044 -28.091808 24.687823 39.941503 -38.680900 46.349978 -76.307737 -16.111290 6.866928 95.449188 27.098198 -69.212815 -80.744527 -39.090812 3.150380 101.295386 15.058763 22.132952 -73.366744 74.735433 -61.981902 126.096430 -5.430257 27.367020 -68.270389 -42.425098 50.181444 106.634994
222.871811 12.397176 3.347979 -16.907989 21.542049 -1.559236 25.195649 40.905835 -24.918670 42.122527 -59.271215 57.349902 -24.249040 28.721142 -47.392084 30.023974 2.802382 54.984545 -10.591820 16.997967 14.376645 73.536076 -46.365983 10.276048 -84.581655 -5.675010 -34.509918 42.145454 28.592130 47.960028 46.012328 -57.293059 13.797583 3.442450 -4.847851 -3.351036 -12.944557 11.463102 19.551688 4.783595 -3.856505 -37.322930 -29.034390 23.244910 41.914859 -41.209631 45.869299 -75.304701 -20.350074 4.783134 95.597098 43.397219 -76.652117 -66.840303 -43.504802 1.529120 102.579598 14.241226 20.950710 -75.124131 78.786178 -59.101981 132.496044 -0.810136 33.457432 -68.667671 -34.741300 47.335487 100.609719
228.369186 14.874399 7.985053 -15.945510 21.772861 -1.232382 24.366270 39.203179 -19.462675 58.052592 -53.278141 59.505873 -35.310521 33.718701 -31.243033 25.613131 -9.306163 50.885400 -12.468156 18.095632 14.022100 68.798572 -45.220347 9.675071 -86.623037 4.204272 -31.265811 52.683927 22.264657 45.834797 44.944851 -58.484675 13.825966 3.493450 -4.129583 -4.345718 -12.989256 10.607063 20.192017 4.184448 -6.488600 -39.041872 -31.751222 24.947727 44.952218 -38.063945 47.109457 -77.954024 -18.252048 3.917299 95.961974 25.730246 -74.153186 -85.750344 -41.821835 1.113083 105.956818 13.559188 21.867823 -76.482602 70.767553 -58.452792 126.865930 3.564379 33.553358 -70.484622 -26.827200 44.237546 92.651973
232.515976 18.632370 11.936145 -14.104580 21.178266 -0.908111 24.148198 39.088890 -8.059542 62.757629 -59.958341 55.434748 -40.232192 37.806737 -17.279002 18.906215 -18.882949 42.891246 -13.844363 17.281089 8.061745 71.001999 -39.365442 9.768688 -94.106176 10.841533 -9.702650 62.803461 1.554063 39.087028 41.972207 -58.935974 11.595914 3.546596 -3.595380 -5.110046 -14.952775 10.186596 23.042909 5.711284 -6.623347 -41.973430 -32.063637 23.391261 46.106096 -39.566474 47.119074 -77.964201 -15.670061 4.949794 97.255006 22.659367 -68.470889 -89.772156 -38.250641 2.281222 105.996440 12.740073 22.826029 -78.624480 64.669196 -56.665703 121.660750 7.929130 34.273663 -74.260957 -20.879120 40.370142 88.413823
236.136795 19.419849 15.641623 -12.885791 20.750595 -0.692764 24.387311 40.037598 1.073129 69.050717 -67.294273 56.989046 -45.709637 40.220346 -7.449967 14.192881 -23.003970 37.101530 -13.701830 14.233477 0.923590 75.477506 -30.009792 5.449467 -92.776084 3.032207 -0.181023 55.564305 -8.236985 31.599840 39.218659 -59.447902 10.839791 3.341143 -2.707817 -5.206132 -16.612784 11.485654 23.742176 6.611908 -9.961839 -41.922057 -32.101614 24.810240 45.498772 -44.834643 44.933312 -75.542415 -15.538271 6.853878 98.087713 32.146532 -67.223491 -82.529771 -37.342316 2.996015 104.161083 11.583592 22.770689 -79.750920 63.344450 -55.099691 119.539157 8.730421 31.053479 -75.313653 -21.560444 41.431819 87.373450
239.706665 18.158363 19.347038 -11.961077 18.844825 -0.919852 24.844680 42.394517 11.972826 73.452627 -80.352266 61.287438 -50.406366 41.716915 -2.767693 14.171073 -21.171208 36.268350 -13.322310 12.151880 -3.761950 79.247302 -32.259039 7.962295 -84.825020 -5.663122 -8.883944 41.752617 11.312082 35.467084 36.513757 -59.121942 9.714887 3.128768 -2.681781 -4.434775 -17.967668 13.606923 23.967769 7.048789 -12.694555 -40.188755 -31.531228 27.716708 43.422488 -51.893569 42.367787 -70.234611 -14.845447 8.628198 97.077207 44.371456 -63.662537 -71.568520 -35.536505 4.559763 99.250822 11.710150 23.020660 -79.002434 64.176402 -55.785203 117.600844 8.547044 29.290624 -73.443749 -22.716313 43.139321 85.966976
243.395874 15.002746 23.363811 -12.231184 17.612974 -1.304454 24.904076 42.510445 11.187153 55.353832 -80.790741 44.827912 -53.968578 36.876252 -11.380152 22.042215 -11.477416 45.178071 -11.929767 9.860229 -6.163604 82.716203 -39.603451 15.313346 -78.743780 -8.727597 -15.663371 27.594123 29.503798 45.948473 38.600231 -57.746906 7.063536 2.621627 -3.367380 -1.663086 -17.419291 15.047808 23.372307 5.284549 -13.547408 -36.264592 -30.927867 29.596907 41.807426 -58.040382 39.726497 -66.867083 -13.570685 11.884644 97.760167 48.252250 -64.022112 -64.809697 -37.413758 4.976108 95.146356 9.213755 22.892887 -79.111453 67.269394 -53.712035 119.592862 6.001299 22.698024 -67.127739 -27.665495 49.179635 83.532580
246.785385 12.571877 28.271225 -13.281140 17.864320 -1.555224 25.283272 43.567323 4.903475 57.567642 -72.136315 46.853099 -55.209027 30.907903 -19.304981 25.563542 -6.583994 49.673758 -10.662394 6.739478 -9.560877 85.560918 -45.165281 25.544504 -79.556069 -0.879881 -15.649763 23.636881 36.456924 53.204206 43.563960 -57.524819 5.736015 2.999756 -6.860608 2.669304 -15.615865 17.754369 21.260415 1.814093 -15.660836 -32.786519 -33.565280 33.645906 43.665030 -54.747468 43.316673 -72.108756 -3.602542 9.396904 100.177257 36.173660 -62.654306 -73.533806 -42.417457 4.320567 93.435856 6.757395 23.264604 -82.464947 72.690660 -50.836691 133.114440 9.377695 18.641518 -70.875896 -31.020369 52.436008 83.622039
249.179031 12.832385 34.283527 -13.511860 18.739805 -1.396051 26.157701 46.072589 1.490874 52.085215 -69.450477 44.049690 -48.333933 27.982072 -22.462575 24.018042 -8.575830 47.561967 -11.085794 5.269959 -12.489290 81.835908 -40.835495 23.231210 -78.849960 1.426984 -15.077271 26.959865 33.744271 50.393538 45.846847 -58.844791 6.802832 4.303483 -9.617694 2.406032 -14.990571 17.672046 21.825591 -0.317216 -16.705300 -32.544272 -37.702773 37.233327 47.515965 -39.236784 50.845121 -86.506612 5.624484 6.449528 106.804303 9.433859 -52.249474 -96.473265 -39.924489 3.303805 99.728420 8.621404 23.200501 -88.404315 75.065857 -48.324071 146.465731 13.690739 20.818527 -79.617057 -29.827948 49.796988 86.527586
250.167130 14.644736 41.038006 -13.886841 20.516537 -1.029259 27.978033 50.671146 1.751604 42.761315 -73.840712 39.390826 -39.481673 26.511969 -24.732817 21.891563 -11.415054 44.878676 -12.807322 6.107963 -14.734899 80.079234 -34.571204 21.128855 -76.230020 -0.097543 -18.982086 28.253167 32.120958 48.816621 48.095195 -62.017980 12.097496 5.364776 -11.455271 -0.910685 -15.044907 16.347136 23.624200 -1.021196 -15.614629 -34.699309 -41.323561 39.345415 51.138937 -7.268305 54.839472 -113.727797 13.284310 -0.095924 114.833334 -7.604898 -27.118722 -110.630925 -26.204944 5.695610 109.684938 14.479629 21.228029 -96.432833 77.792454 -46.142634 161.243478 20.855617 28.473544 -93.105352 -26.486481 43.494070 93.718265
249.774811 16.137457 47.878231 -12.935181 23.290339 -0.028906 29.729725 57.036170 4.225578 26.249344 -83.154302 26.785659 -31.446031 29.645075 -30.055125 22.286480 -16.722832 47.731128 -15.663822 8.228402 -15.650228 80.378698 -30.710224 20.476662 -75.016519 -1.334553 -20.711863 31.542273 28.462415 45.747316 48.139713 -65.641782 16.864884 6.461217 -15.062872 -2.921553 -16.042868 15.371703 26.327303 -1.179604 -15.616766 -39.579352 -46.642733 41.516954 56.614875 26.583946 48.682363 -140.436943 17.383699 -13.626112 120.361286 -11.688956 1.991290 -117.064463 -4.456242 13.939327 118.056395 24.107544 14.267281 -104.858339 81.808351 -44.637002 -179.903329 42.763336 38.919321 -113.319174 -14.270048 31.732209 96.495607
248.035736 15.076744 53.612251 -13.478570 24.851005 0.270763 29.414822 59.609892 8.973022 5.229054 -84.611027 4.932929 -27.638253 35.197045 -40.394296 27.957212 -22.360386 59.065215 -16.631019 11.507909 -11.624253 84.184890 -32.027938 21.041285 -75.935392 -5.930593 -25.243518 30.928158 30.018693 47.132487 48.903795 -67.036813 20.957527 5.968264 -15.100474 -2.019361 -15.251883 15.158600 23.749286 -0.753696 -15.976201 -42.171458 -48.071923 41.738695 58.197497 32.587924 46.329604 -146.558358 13.223486 -21.904991 119.010374 -8.982934 -2.420653 -126.077244 -4.493614 14.913162 128.146690 28.439672 8.319677 -108.281411 86.893700 -38.075193 -174.065898 52.805696 46.317931 -117.516185 -11.913778 29.835213 95.395295
